# xmcd
#
# Track frame offsets: 
#        150
#        18379
#        32170
#        46948
#        60437
#        76310
#        87645
#        100762
#        113457
#        117996
#        140879
#        157063
#        174263
#        200509
#        213171
#        231436
#        256035
#        270528
#        283717
#        305017
#
# Disc length: 4267 seconds
#
# Revision: 0
# Processed by: cddbd v1.4PL0 Copyright (c) Steve Scherf et al.
# Submitted via: ExactAudioCopy v0.90a11
#
DISCID=1510a914
DTITLE=Lightnin' Hopkins - The World Is In A Tangle
DYEAR=1900
DGENRE=
TTITLE0=You Just Got To Miss Me
TTITLE1=War Is Starting Again
TTITLE2=Good As Old Time Religion
TTITLE3=Got Me A Louisiana Woman
TTITLE4=Pine Gum Boogie
TTITLE5=Lightning Jump
TTITLE6=I Went To Louisiana
TTITLE7=Late In The Evening
TTITLE8=Old Man
TTITLE9=Rainy Day In Houston
TTITLE10=Mojo Hand
TTITLE11=Vietnam War
TTITLE12=Cryin' For Bread
TTITLE13=Wake Up The Dead
TTITLE14=I Wonder Where She Can Be Tonight
TTITLE15=Born In The Bottoms
TTITLE16=Go Ahead
TTITLE17=Feel Like Balling The Jack
TTITLE18=A Man Like Me Is Hard To Find
TTITLE19=The World's In A Tangle
EXTD=
EXTT0=
EXTT1=
EXTT2=
EXTT3=
EXTT4=
EXTT5=
EXTT6=
EXTT7=
EXTT8=
EXTT9=
EXTT10=
EXTT11=
EXTT12=
EXTT13=
EXTT14=
EXTT15=
EXTT16=
EXTT17=
EXTT18=
EXTT19=
PLAYORDER=
